<mxfile host="app.diagrams.net" modified="2022-03-27T13:37:37.046Z" agent="5.0 (Windows)" etag="yxq96GtZF9XMme8U64oi" version="17.2.4" type="github">
  <diagram id="QfxIOdXVGip5T5FkoNVh" name="Page-1">
    <mxGraphModel dx="782" dy="458" grid="1" gridSize="10" guides="1" tooltips="1" connect="1" arrows="1" fold="1" page="1" pageScale="1" pageWidth="1100" pageHeight="850" math="0" shadow="0">
      <root>
        <mxCell id="0" />
        <mxCell id="1" parent="0" />
        <mxCell id="XYPoQsulwiEbPSnn4sWU-14" value="" style="edgeStyle=orthogonalEdgeStyle;rounded=0;orthogonalLoop=1;jettySize=auto;html=1;startArrow=none;startFill=0;endArrow=none;endFill=0;strokeColor=#000000;strokeWidth=2;" edge="1" parent="1" source="XYPoQsulwiEbPSnn4sWU-1" target="XYPoQsulwiEbPSnn4sWU-4">
          <mxGeometry relative="1" as="geometry" />
        </mxCell>
        <mxCell id="XYPoQsulwiEbPSnn4sWU-1" value="&lt;div&gt;Пользователь&lt;/div&gt;&lt;div&gt;&lt;br&gt;&lt;/div&gt;" style="shape=umlActor;verticalLabelPosition=bottom;verticalAlign=top;html=1;rounded=0;fillColor=none;" vertex="1" parent="1">
          <mxGeometry x="90" y="145" width="30" height="60" as="geometry" />
        </mxCell>
        <mxCell id="XYPoQsulwiEbPSnn4sWU-8" value="&lt;div&gt;include&lt;/div&gt;" style="edgeStyle=orthogonalEdgeStyle;rounded=0;orthogonalLoop=1;jettySize=auto;html=1;exitX=1;exitY=0.5;exitDx=0;exitDy=0;entryX=0;entryY=0.5;entryDx=0;entryDy=0;startArrow=none;startFill=0;endArrow=classic;endFill=1;strokeColor=#000000;strokeWidth=2;dashed=1;" edge="1" parent="1" source="XYPoQsulwiEbPSnn4sWU-4" target="XYPoQsulwiEbPSnn4sWU-5">
          <mxGeometry relative="1" as="geometry" />
        </mxCell>
        <mxCell id="XYPoQsulwiEbPSnn4sWU-4" value="Получить информацию о комнате" style="ellipse;whiteSpace=wrap;html=1;rounded=0;fillColor=none;" vertex="1" parent="1">
          <mxGeometry x="210" y="140" width="140" height="70" as="geometry" />
        </mxCell>
        <mxCell id="XYPoQsulwiEbPSnn4sWU-5" value="Занятость комнаты" style="ellipse;whiteSpace=wrap;html=1;rounded=0;fillColor=none;" vertex="1" parent="1">
          <mxGeometry x="531" y="40" width="140" height="70" as="geometry" />
        </mxCell>
        <mxCell id="XYPoQsulwiEbPSnn4sWU-6" value="Стоимость комнаты" style="ellipse;whiteSpace=wrap;html=1;rounded=0;fillColor=none;" vertex="1" parent="1">
          <mxGeometry x="531" y="120" width="140" height="70" as="geometry" />
        </mxCell>
        <mxCell id="XYPoQsulwiEbPSnn4sWU-7" value="Размер комнаты" style="ellipse;whiteSpace=wrap;html=1;rounded=0;fillColor=none;" vertex="1" parent="1">
          <mxGeometry x="531" y="200" width="140" height="70" as="geometry" />
        </mxCell>
        <mxCell id="XYPoQsulwiEbPSnn4sWU-9" value="&lt;div&gt;include&lt;/div&gt;" style="edgeStyle=orthogonalEdgeStyle;rounded=0;orthogonalLoop=1;jettySize=auto;html=1;exitX=1;exitY=0.5;exitDx=0;exitDy=0;entryX=0;entryY=0.5;entryDx=0;entryDy=0;startArrow=none;startFill=0;endArrow=classic;endFill=1;strokeColor=#000000;strokeWidth=2;dashed=1;" edge="1" parent="1" source="XYPoQsulwiEbPSnn4sWU-4" target="XYPoQsulwiEbPSnn4sWU-6">
          <mxGeometry relative="1" as="geometry">
            <mxPoint x="360" y="185" as="sourcePoint" />
            <mxPoint x="541" y="85" as="targetPoint" />
          </mxGeometry>
        </mxCell>
        <mxCell id="XYPoQsulwiEbPSnn4sWU-10" value="&lt;div&gt;include&lt;/div&gt;" style="edgeStyle=orthogonalEdgeStyle;rounded=0;orthogonalLoop=1;jettySize=auto;html=1;exitX=1;exitY=0.5;exitDx=0;exitDy=0;entryX=0;entryY=0.5;entryDx=0;entryDy=0;startArrow=none;startFill=0;endArrow=classic;endFill=1;strokeColor=#000000;strokeWidth=2;dashed=1;" edge="1" parent="1" source="XYPoQsulwiEbPSnn4sWU-4" target="XYPoQsulwiEbPSnn4sWU-7">
          <mxGeometry relative="1" as="geometry">
            <mxPoint x="330" y="320" as="sourcePoint" />
            <mxPoint x="511" y="220" as="targetPoint" />
          </mxGeometry>
        </mxCell>
        <mxCell id="XYPoQsulwiEbPSnn4sWU-13" value="Extend" style="edgeStyle=orthogonalEdgeStyle;rounded=0;orthogonalLoop=1;jettySize=auto;html=1;dashed=1;startArrow=none;startFill=0;endArrow=classic;endFill=1;strokeColor=#000000;strokeWidth=2;" edge="1" parent="1" source="XYPoQsulwiEbPSnn4sWU-11" target="XYPoQsulwiEbPSnn4sWU-4">
          <mxGeometry relative="1" as="geometry" />
        </mxCell>
        <mxCell id="XYPoQsulwiEbPSnn4sWU-11" value="Получить информацию о комнате на электронную почту" style="ellipse;whiteSpace=wrap;html=1;rounded=0;fillColor=none;" vertex="1" parent="1">
          <mxGeometry x="210" y="20" width="140" height="70" as="geometry" />
        </mxCell>
      </root>
    </mxGraphModel>
  </diagram>
</mxfile>
